<svg aria-hidden="true" style="position:absolute;width:0;height:0;overflow:hidden"
    xmlns="http://www.w3.org/2000/svg">
    <defs>
        <symbol id="icon-freezer" viewBox="0 0 32 32">
            <path stroke-linejoin="round" stroke-linecap="round" stroke-width="2.08"
                d="M23.4 3H8.607a2 2 0 0 0-2 2v20.387a2 2 0 0 0 2 2H23.4a2 2 0 0 0 2-2V5a2 2 0 0 0-2-2z" />
            <path stroke-linejoin="round" stroke-linecap="round" stroke-width="2.08"
                d="M6.607 13.127h18.787m-15.081-2.56v-4.04m0 12.913V15.4M8.427 27.387v.7a.911.911 0 0 0 .907.913h1.647a.911.911 0 0 0 .914-.914v-.7m8.205.001v.7a.913.913 0 0 0 .914.914h1.653a.913.913 0 0 0 .914-.914v-.7" />
        </symbol>
        <symbol id="icon-CD" viewBox="0 0 32 32">
            <path stroke-width="2.4"
                d="M16 28c6.627 0 12-5.373 12-12S22.627 4 16 4 4 9.373 4 16s5.373 12 12 12z" />
            <path stroke-linecap="round" stroke-width="2.4" d="M8.667 16A7.333 7.333 0 0 1 16 8.667" />
            <path stroke-width="2.4"
                d="M16 19.333a3.333 3.333 0 1 0 0-6.665 3.333 3.333 0 0 0 0 6.665z" />
        </symbol>
        <symbol id="icon-hob" viewBox="0 0 32 32">
            <path stroke-width="2.4"
                d="M12 6.667h16a1.335 1.335 0 0 1 1.334 1.334v17.333A1.335 1.335 0 0 1 28 26.668H12m0-20.001H4a1.33 1.33 0 0 0-1.333 1.334v17.333A1.333 1.333 0 0 0 4 26.668h8m0-20.001v20" />
            <path stroke-linejoin="round" stroke-linecap="round" stroke-width="2.4"
                d="M7.333 11.333V14m17.334-3.333-8 11.333" />
            <path
                d="M8.667 18A1.333 1.333 0 1 0 6 18a1.333 1.333 0 0 0 2.667 0zM8.667 22A1.333 1.333 0 1 0 6 22a1.333 1.333 0 0 0 2.667 0z" />
        </symbol>
        <symbol id="icon-water" viewBox="0 0 32 32">
            <path stroke-miterlimit="10" stroke-width="2.4"
                d="M25 20c0 5.523-3.477 9-9 9s-9-3.477-9-9c0-5.927 6.452-13.928 8.431-16.242a.763.763 0 0 1 .57-.263.744.744 0 0 1 .57.263c1.978 2.314 8.43 10.316 8.43 16.242z" />
            <path stroke-linejoin="round" stroke-linecap="round" stroke-width="2.4"
                d="M21.5 20.5A4.5 4.5 0 0 1 17 25" />
        </symbol>
        <symbol id="icon-mappin" viewBox="0 0 29 32">
            <path stroke-linejoin="round" stroke-linecap="round" stroke-miterlimit="4"
                stroke-width="2.4"
                d="M26.4 13.333c0 9.333-12 17.333-12 17.333s-12-8-12-17.333c0-3.183 1.264-6.235 3.515-8.485s5.303-3.515 8.485-3.515c3.183 0 6.235 1.264 8.485 3.515s3.515 5.303 3.515 8.485z"></path>
            <path stroke-linejoin="round" stroke-linecap="round" stroke-miterlimit="4"
                stroke-width="2.4"
                d="M14.4 17.333c2.209 0 4-1.791 4-4s-1.791-4-4-4c-2.209 0-4 1.791-4 4s1.791 4 4 4z"></path>
        </symbol>
        <symbol id="icon-gas" viewBox="0 0 32 32">
            <path
                d="M25.072 13.991c-.368-.453-.816-.846-1.232-1.239-1.072-.907-2.288-1.556-3.311-2.508-2.384-2.206-2.912-5.848-1.392-8.644-1.52.348-2.848 1.133-3.983 1.995-4.143 3.143-5.775 8.689-3.823 13.449.064.151.128.302.128.499 0 .332-.24.635-.56.756-.368.151-.752.06-1.056-.181a.901.901 0 0 1-.224-.257c-1.808-2.161-2.096-5.259-.88-7.737-2.672 2.055-4.127 5.531-3.919 8.81.096.756.192 1.511.464 2.267.224.907.656 1.813 1.136 2.614 1.728 2.614 4.719 4.488 7.935 4.866 3.423.408 7.087-.181 9.71-2.418 2.927-2.508 3.951-6.528 2.448-9.974l-.208-.393c-.336-.695-1.232-1.904-1.232-1.904zm-5.055 9.521c-.448.363-1.184.756-1.76.907-1.792.604-3.583-.242-4.639-1.239 1.904-.423 3.039-1.753 3.375-3.098.272-1.209-.24-2.206-.448-3.37-.192-1.118-.16-2.07.272-3.113.304.574.624 1.148 1.008 1.602 1.232 1.511 3.167 2.176 3.583 4.231.064.212.096.423.096.65.048 1.239-.528 2.599-1.488 3.43z" />
        </symbol>
        <symbol id="icon-toilet" viewBox="0 0 32 32">
            <path
                d="M24 4c1.939 0 3.269 1.647 4.04 3.313.761 1.653 1.224 3.811 1.287 6.145l.007.541v12.667a1.343 1.343 0 0 1-.409.962 1.352 1.352 0 0 1-.978.371l-.165-.019-3.781-.629-3.781.629a1.33 1.33 0 0 1-.483-.008l-.157-.041-3.579-1.193-3.579 1.193a1.327 1.327 0 0 1-1.135-.138 1.323 1.323 0 0 1-.61-.968l-.009-.159v-3.903c-.708.733-1.595 1.236-2.667 1.236-1.939 0-3.269-1.647-4.04-3.313-.819-1.78-1.293-4.145-1.293-6.687s.473-4.907 1.293-6.687c.735-1.592 1.981-3.164 3.78-3.303l.26-.011h16zm0 2.667H11.709c.12.213.229.429.329.647.821 1.78 1.295 4.145 1.295 6.687v10.817l2.245-.749c.274-.091.569-.091.843 0l3.687 1.229 3.673-.613c.144-.024.293-.024.437 0l2.448.409V14.001c0-2.245-.423-4.213-1.049-5.569C24.94 6.961 24.27 6.668 24 6.668zm-16 0c-.271 0-.94.293-1.617 1.764C5.756 9.787 5.334 11.755 5.334 14s.423 4.213 1.049 5.569C7.06 21.04 7.73 21.333 8 21.333s.94-.293 1.617-1.764c.627-1.356 1.049-3.324 1.049-5.569s-.423-4.213-1.049-5.569C8.94 6.96 8.27 6.667 8 6.667zm0 4.666c.736 0 1.333 1.193 1.333 2.667S8.736 16.667 8 16.667 6.667 15.474 6.667 14 7.264 11.333 8 11.333z" />
        </symbol>
        <symbol id="icon-radio" viewBox="0 0 32 32">
            <path stroke-width="2.08"
                d="M2.667 18.667c0-5.028 0-7.543 1.563-9.104C5.791 8 8.306 8 13.334 8h5.333c5.028 0 7.543 0 9.104 1.563 1.563 1.561 1.563 4.076 1.563 9.104s0 7.543-1.563 9.104c-1.561 1.563-4.076 1.563-9.104 1.563h-5.333c-5.028 0-7.543 0-9.104-1.563-1.563-1.561-1.563-4.076-1.563-9.104z" />
            <path stroke-width="2.08"
                d="M6.667 14.667A2.668 2.668 0 0 1 9.334 12h13.333a2.668 2.668 0 0 1 0 5.334H9.334a2.668 2.668 0 0 1-2.667-2.667zm5.333 8a2 2 0 1 1-4.001-.001 2 2 0 0 1 4.001.001z" />
            <path stroke-linecap="round" stroke-width="2.08"
                d="M20 15.333v2m-2.667 5.334H24M8.667 8 20 2.667" />
        </symbol>
        <symbol id="icon-airConditioner" viewBox="0 0 32 32">
            <path stroke-linejoin="round" stroke-linecap="round" stroke-width="2.4"
                d="M28.571 1.143H3.428a2.287 2.287 0 0 0-2.285 2.285v11.429a2.287 2.287 0 0 0 2.285 2.285h25.143a2.287 2.287 0 0 0 2.286-2.285V3.428a2.283 2.283 0 0 0-2.286-2.285z" />
            <path stroke-linejoin="round" stroke-linecap="round" stroke-width="2.4"
                d="M25.143 17.143v-4.571a2.283 2.283 0 0 0-2.286-2.285H9.143a2.287 2.287 0 0 0-2.285 2.285v4.571M5.714 28.572h.229a3.2 3.2 0 0 0 3.2-3.2v-2.514m17.143 5.714h-.229a3.2 3.2 0 0 1-3.2-3.2v-2.514M16 30.857v-8" />
        </symbol>
        <symbol id="icon-microwave" viewBox="0 0 32 32">
            <path stroke-linejoin="round" stroke-linecap="round" stroke-width="2.24"
                d="M29.714 5.714H2.285a1.14 1.14 0 0 0-1.143 1.143v18.286a1.14 1.14 0 0 0 1.143 1.143h27.429a1.14 1.14 0 0 0 1.143-1.143V6.857a1.14 1.14 0 0 0-1.143-1.143z" />
            <path stroke-linejoin="round" stroke-linecap="round" stroke-width="2.24"
                d="M25.143 11.428h1.143M25.143 16h1.143m-6.858-5.714H6.857a1.14 1.14 0 0 0-1.143 1.143v9.143a1.14 1.14 0 0 0 1.143 1.143h12.571a1.14 1.14 0 0 0 1.143-1.143v-9.143a1.14 1.14 0 0 0-1.143-1.143z" />
        </symbol>
        <symbol id="icon-calendar" viewBox="0 0 32 32">
            <path stroke-linejoin="round" stroke-linecap="round" stroke-width="2.4"
                d="M25.333 5.333H6.666A2.667 2.667 0 0 0 3.999 8v18.667a2.667 2.667 0 0 0 2.667 2.667h18.667A2.667 2.667 0 0 0 28 26.667V8a2.667 2.667 0 0 0-2.667-2.667zM21.333 2.667V8M10.667 2.667V8M4 13.333h24" />
        </symbol>
        <symbol id="icon-fullyint" viewBox="0 0 46 32">
            <path
                d="M2.608 1.8h12.409c.105 0 .203-.04.278-.112L16.487.525a1.845 1.845 0 0 1 1.297-.524h18.817c.876 0 1.69.425 2.176 1.136l2.255 3.3c.32.468.349 1.067.077 1.564s-.8.805-1.377.805h-9.698v.956h4.967c1.317 0 2.501.763 3.018 1.945l2.908 6.65 2.548.994c1.36.531 2.24 1.797 2.24 3.227v6.158c0 .918-.766 1.666-1.708 1.666h-2.964c-.345 2.039-2.164 3.599-4.35 3.599s-4.005-1.561-4.35-3.599H16.14c-.345 2.039-2.164 3.599-4.35 3.599s-4.005-1.561-4.35-3.599H1.519c-.837 0-1.518-.664-1.518-1.481V4.345c0-1.403 1.17-2.544 2.608-2.544zm34.084 28.794c1.637 0 2.969-1.299 2.969-2.896s-1.332-2.896-2.969-2.896c-1.637 0-2.969 1.299-2.969 2.896s1.332 2.896 2.969 2.896zm-6.658-3.599h2.307l.02-.105.014-.071c.012-.055.025-.11.039-.164.003-.011.005-.023.009-.034a3.34 3.34 0 0 1 .057-.195l.019-.056a5.274 5.274 0 0 1 .122-.321l.033-.075c.016-.037.032-.072.05-.108l.038-.075.054-.103.041-.074.059-.101.043-.071.066-.101.044-.065.077-.105.04-.055.109-.135.016-.02c.043-.051.087-.1.132-.148l.043-.044.096-.099.056-.053.09-.084.062-.054.09-.077.066-.052.093-.071a1.22 1.22 0 0 1 .069-.05l.097-.068.069-.046c.034-.023.069-.044.104-.065l.068-.041c.038-.023.077-.044.116-.065l.059-.033.168-.084.013-.006c.061-.029.123-.056.186-.082l.061-.024.13-.05.075-.026.12-.039.082-.024c.039-.011.078-.023.118-.033.028-.007.056-.015.085-.021l.118-.026.087-.018c.04-.007.081-.015.122-.021l.086-.014.128-.016.082-.009.143-.011.07-.005a3.893 3.893 0 0 1 .502.005c.048.003.096.006.143.011.028.002.055.006.082.009l.128.016c.029.004.058.008.087.014.041.006.081.014.122.021l.087.018a4.084 4.084 0 0 1 .321.08l.082.024.12.039.075.026.13.05.061.024c.062.026.125.053.186.082l.013.006c.057.027.112.055.168.084l.059.033.116.065.068.041.104.065.069.046c.033.023.065.044.097.068l.069.05.093.071.066.052c.031.025.061.051.09.077l.062.054.09.084.056.053.096.099.043.044c.045.048.089.098.132.148l.016.02c.037.044.073.089.109.135l.04.055.077.105.044.065.066.101.043.071.059.101.041.074.054.103.038.075.05.108c.011.025.023.049.033.075.017.038.032.077.047.116a2.087 2.087 0 0 1 .075.205l.019.056c.02.064.039.129.056.195l.009.034c.014.055.027.109.039.164l.014.071.02.105h2.963a.263.263 0 0 0 .266-.26v-2.946h-1.124v-1.406h1.124v-1.806c0-.851-.523-1.606-1.333-1.922l-2.697-1.052H30.031v9.392zm0-10.798h9.257l-2.598-5.939a1.84 1.84 0 0 0-1.692-1.09h-4.967v7.03zM11.789 30.594c1.637 0 2.969-1.299 2.969-2.896s-1.332-2.896-2.969-2.896c-.051 0-.102.001-.153.004-1.364.067-2.488 1.038-2.756 2.309a2.812 2.812 0 0 0-.061.583c0 1.597 1.332 2.896 2.969 2.896zM1.441 22.383h1.124v1.406H1.441v3.131c0 .041.035.075.077.075h5.92l.02-.104.014-.072c.012-.054.024-.107.038-.16l.009-.038a4.26 4.26 0 0 1 .056-.193l.02-.058.046-.132.028-.072.046-.114a2.049 2.049 0 0 1 .084-.182l.038-.076.054-.102.042-.074.059-.1a2.156 2.156 0 0 1 .11-.171 1.08 1.08 0 0 1 .044-.066l.076-.104.042-.057.106-.132a3.757 3.757 0 0 1 .15-.171l.043-.045c.032-.033.063-.066.096-.098l.056-.053.089-.083.062-.055c.029-.025.059-.051.09-.075l.066-.053.092-.071.069-.05.096-.067.07-.047c.034-.023.069-.044.103-.065l.069-.042c.038-.023.077-.044.116-.065.02-.011.04-.023.061-.033.055-.029.11-.057.167-.083l.014-.007c.061-.029.123-.056.186-.082l.061-.024.13-.05.076-.026c.039-.014.079-.027.119-.039l.082-.024c.039-.011.078-.023.118-.033.028-.007.056-.015.085-.021l.118-.026.087-.018c.04-.007.081-.015.122-.021l.086-.014.128-.016.082-.009.143-.011.07-.005a3.893 3.893 0 0 1 .502.005c.048.003.096.006.143.011.028.002.055.006.082.009l.128.016c.029.004.058.008.086.014.041.006.081.014.122.021l.087.018a4.084 4.084 0 0 1 .321.08l.082.024c.04.012.08.026.119.039l.076.026.13.05.061.024c.062.026.124.053.186.082l.014.007c.056.026.112.054.167.083l.06.033.116.065.069.042c.035.021.069.042.103.065l.07.047c.032.022.065.044.096.067l.069.05.092.071c.023.017.044.035.066.053.031.025.061.05.09.076l.062.054.09.084.056.053.096.098.043.044c.045.048.089.098.132.148l.017.021c.036.044.073.088.107.134l.042.055.077.105.044.066c.023.033.044.066.066.1l.044.071.059.101.041.074.055.103a2.6 2.6 0 0 1 .087.183 2.343 2.343 0 0 1 .08.191l.028.071c.017.045.032.09.047.135l.019.055c.02.064.039.129.057.195l.007.031c.014.056.028.111.04.168l.013.069.021.106h12.453V6.106c0-.388.323-.703.721-.703h10.419c.018 0 .073 0 .107-.062s.004-.106-.006-.12l-2.255-3.3a1.18 1.18 0 0 0-.977-.51H17.784a.397.397 0 0 0-.278.112l-1.192 1.163a1.845 1.845 0 0 1-1.297.524H2.608c-.643 0-1.167.511-1.167 1.138v18.039z" />
            <path
                d="M20.116 7.198h4.558c.921 0 1.67.731 1.67 1.629v15.046a.712.712 0 0 1-.721.703h-6.456a.712.712 0 0 1-.721-.703V8.827c-.001-.899.748-1.629 1.669-1.629zm-.229 15.972h5.015v-8.267h-5.015v8.267zm0-9.673h5.015V8.828a.226.226 0 0 0-.229-.223h-4.558c-.126 0-.229.1-.229.223l.001 4.669z" />
        </symbol>
        <symbol id="icon-van" viewBox="0 0 46 32">
            <path
                d="M2.608 1.8h12.409c.105 0 .203-.04.278-.112L16.487.525a1.845 1.845 0 0 1 1.297-.524h18.817c.876 0 1.69.425 2.176 1.136l2.255 3.3c.32.468.349 1.067.077 1.564s-.8.805-1.377.805h-9.698v.956h4.967c1.317 0 2.501.763 3.018 1.945l2.908 6.65 2.548.994c1.36.531 2.24 1.797 2.24 3.227v6.158c0 .918-.766 1.666-1.708 1.666h-2.964c-.345 2.039-2.164 3.599-4.35 3.599s-4.005-1.561-4.35-3.599H16.14c-.345 2.039-2.164 3.599-4.35 3.599s-4.005-1.561-4.35-3.599H1.519c-.837 0-1.518-.664-1.518-1.481V4.345c0-1.403 1.17-2.544 2.608-2.544zm34.084 28.794c1.637 0 2.969-1.299 2.969-2.896s-1.332-2.896-2.969-2.896c-1.637 0-2.969 1.299-2.969 2.896s1.332 2.896 2.969 2.896zm-6.658-3.599h2.307l.02-.105.014-.071c.012-.055.025-.11.039-.164.003-.011.005-.023.009-.034a3.34 3.34 0 0 1 .057-.195l.019-.056a5.274 5.274 0 0 1 .122-.321l.033-.075c.016-.037.032-.072.05-.108l.038-.075.054-.103.041-.074.059-.101.043-.071.066-.101.044-.065.077-.105.04-.055.109-.135.016-.02c.043-.051.087-.1.132-.148l.043-.044.096-.099.056-.053.09-.084.062-.054.09-.077.066-.052.093-.071a1.22 1.22 0 0 1 .069-.05l.097-.068.069-.046c.034-.023.069-.044.104-.065l.068-.041c.038-.023.077-.044.116-.065l.059-.033.168-.084.013-.006c.061-.029.123-.056.186-.082l.061-.024.13-.05.075-.026.12-.039.082-.024c.039-.011.078-.023.118-.033.028-.007.056-.015.085-.021l.118-.026.087-.018c.04-.007.081-.015.122-.021l.086-.014.128-.016.082-.009.143-.011.07-.005a3.893 3.893 0 0 1 .502.005c.048.003.096.006.143.011.028.002.055.006.082.009l.128.016c.029.004.058.008.087.014.041.006.081.014.122.021l.087.018a4.084 4.084 0 0 1 .321.08l.082.024.12.039.075.026.13.05.061.024c.062.026.125.053.186.082l.013.006c.057.027.112.055.168.084l.059.033.116.065.068.041.104.065.069.046c.033.023.065.044.097.068l.069.05.093.071.066.052c.031.025.061.051.09.077l.062.054.09.084.056.053.096.099.043.044c.045.048.089.098.132.148l.016.02c.037.044.073.089.109.135l.04.055.077.105.044.065.066.101.043.071.059.101.041.074.054.103.038.075.05.108c.011.025.023.049.033.075.017.038.032.077.047.116a2.087 2.087 0 0 1 .075.205l.019.056c.02.064.039.129.056.195l.009.034c.014.055.027.109.039.164l.014.071.02.105h2.963a.263.263 0 0 0 .266-.26v-2.946h-1.124v-1.406h1.124v-1.806c0-.851-.523-1.606-1.333-1.922l-2.697-1.052H30.031v9.392zm0-10.798h9.257l-2.598-5.939a1.84 1.84 0 0 0-1.692-1.09h-4.967v7.03zM11.789 30.594c1.637 0 2.969-1.299 2.969-2.896s-1.332-2.896-2.969-2.896c-.051 0-.102.001-.153.004-1.364.067-2.488 1.038-2.756 2.309a2.812 2.812 0 0 0-.061.583c0 1.597 1.332 2.896 2.969 2.896zM1.441 22.383h1.124v1.406H1.441v3.131c0 .041.035.075.077.075h5.92l.02-.104.014-.072c.012-.054.024-.107.038-.16l.009-.038a4.26 4.26 0 0 1 .056-.193l.02-.058.046-.132.028-.072.046-.114a2.049 2.049 0 0 1 .084-.182l.038-.076.054-.102.042-.074.059-.1a2.156 2.156 0 0 1 .11-.171 1.08 1.08 0 0 1 .044-.066l.076-.104.042-.057.106-.132a3.757 3.757 0 0 1 .15-.171l.043-.045c.032-.033.063-.066.096-.098l.056-.053.089-.083.062-.055c.029-.025.059-.051.09-.075l.066-.053.092-.071.069-.05.096-.067.07-.047c.034-.023.069-.044.103-.065l.069-.042c.038-.023.077-.044.116-.065.02-.011.04-.023.061-.033.055-.029.11-.057.167-.083l.014-.007c.061-.029.123-.056.186-.082l.061-.024.13-.05.076-.026c.039-.014.079-.027.119-.039l.082-.024c.039-.011.078-.023.118-.033.028-.007.056-.015.085-.021l.118-.026.087-.018c.04-.007.081-.015.122-.021l.086-.014.128-.016.082-.009.143-.011.07-.005a3.893 3.893 0 0 1 .502.005c.048.003.096.006.143.011.028.002.055.006.082.009l.128.016c.029.004.058.008.086.014.041.006.081.014.122.021l.087.018a4.084 4.084 0 0 1 .321.08l.082.024c.04.012.08.026.119.039l.076.026.13.05.061.024c.062.026.124.053.186.082l.014.007c.056.026.112.054.167.083l.06.033.116.065.069.042c.035.021.069.042.103.065l.07.047c.032.022.065.044.096.067l.069.05.092.071c.023.017.044.035.066.053.031.025.061.05.09.076l.062.054.09.084.056.053.096.098.043.044c.045.048.089.098.132.148l.017.021c.036.044.073.088.107.134l.042.055.077.105.044.066c.023.033.044.066.066.1l.044.071.059.101.041.074.055.103a2.6 2.6 0 0 1 .087.183 2.343 2.343 0 0 1 .08.191l.028.071c.017.045.032.09.047.135l.019.055c.02.064.039.129.057.195l.007.031c.014.056.028.111.04.168l.013.069.021.106h12.453V6.106c0-.388.323-.703.721-.703h10.419c.018 0 .073 0 .107-.062s.004-.106-.006-.12l-2.255-3.3a1.18 1.18 0 0 0-.977-.51H17.784a.397.397 0 0 0-.278.112l-1.192 1.163a1.845 1.845 0 0 1-1.297.524H2.608c-.643 0-1.167.511-1.167 1.138v18.039z" />
            <path
                d="M5.536 7.198h8.814c1.019 0 1.848.809 1.848 1.802v4.1c0 .994-.829 1.802-1.848 1.802H5.535c-1.019 0-1.848-.809-1.848-1.802V9c.001-.994.83-1.802 1.848-1.802zM5.129 13.1c0 .218.182.396.406.396h8.814a.402.402 0 0 0 .406-.396V9a.402.402 0 0 0-.406-.396H5.534A.402.402 0 0 0 5.128 9l.001 4.1z" />
        </symbol>
        <symbol id="icon-camper" viewBox="0 0 46 32">
            <path
                d="M2.608 1.8h12.409c.105 0 .203-.04.278-.112L16.487.525a1.845 1.845 0 0 1 1.297-.524h18.817c.876 0 1.69.425 2.176 1.136l2.255 3.3c.32.468.349 1.067.077 1.564s-.8.805-1.377.805h-9.698v.956h4.967c1.317 0 2.501.763 3.018 1.945l2.908 6.65 2.548.994c1.36.531 2.24 1.797 2.24 3.227v6.158c0 .918-.766 1.666-1.708 1.666h-2.964c-.345 2.039-2.164 3.599-4.35 3.599s-4.005-1.561-4.35-3.599H16.14c-.345 2.039-2.164 3.599-4.35 3.599s-4.005-1.561-4.35-3.599H1.519c-.837 0-1.518-.664-1.518-1.481V4.345c0-1.403 1.17-2.544 2.608-2.544zm34.084 28.794c1.637 0 2.969-1.299 2.969-2.896s-1.332-2.896-2.969-2.896c-1.637 0-2.969 1.299-2.969 2.896s1.332 2.896 2.969 2.896zm-6.658-3.599h2.307l.02-.105.014-.071c.012-.055.025-.11.039-.164.003-.011.005-.023.009-.034a3.34 3.34 0 0 1 .057-.195l.019-.056a5.274 5.274 0 0 1 .122-.321l.033-.075c.016-.037.032-.072.05-.108l.038-.075.054-.103.041-.074.059-.101.043-.071.066-.101.044-.065.077-.105.04-.055.109-.135.016-.02c.043-.051.087-.1.132-.148l.043-.044.096-.099.056-.053.09-.084.062-.054.09-.077.066-.052.093-.071a1.22 1.22 0 0 1 .069-.05l.097-.068.069-.046c.034-.023.069-.044.104-.065l.068-.041c.038-.023.077-.044.116-.065l.059-.033.168-.084.013-.006c.061-.029.123-.056.186-.082l.061-.024.13-.05.075-.026.12-.039.082-.024c.039-.011.078-.023.118-.033.028-.007.056-.015.085-.021l.118-.026.087-.018c.04-.007.081-.015.122-.021l.086-.014.128-.016.082-.009.143-.011.07-.005a3.893 3.893 0 0 1 .502.005c.048.003.096.006.143.011.028.002.055.006.082.009l.128.016c.029.004.058.008.087.014.041.006.081.014.122.021l.087.018a4.084 4.084 0 0 1 .321.08l.082.024.12.039.075.026.13.05.061.024c.062.026.125.053.186.082l.013.006c.057.027.112.055.168.084l.059.033.116.065.068.041.104.065.069.046c.033.023.065.044.097.068l.069.05.093.071.066.052c.031.025.061.051.09.077l.062.054.09.084.056.053.096.099.043.044c.045.048.089.098.132.148l.016.02c.037.044.073.089.109.135l.04.055.077.105.044.065.066.101.043.071.059.101.041.074.054.103.038.075.05.108c.011.025.023.049.033.075.017.038.032.077.047.116a2.087 2.087 0 0 1 .075.205l.019.056c.02.064.039.129.056.195l.009.034c.014.055.027.109.039.164l.014.071.02.105h2.963a.263.263 0 0 0 .266-.26v-2.946h-1.124v-1.406h1.124v-1.806c0-.851-.523-1.606-1.333-1.922l-2.697-1.052H30.031v9.392zm0-10.798h9.257l-2.598-5.939a1.84 1.84 0 0 0-1.692-1.09h-4.967v7.03zM11.789 30.594c1.637 0 2.969-1.299 2.969-2.896s-1.332-2.896-2.969-2.896c-.051 0-.102.001-.153.004-1.364.067-2.488 1.038-2.756 2.309a2.812 2.812 0 0 0-.061.583c0 1.597 1.332 2.896 2.969 2.896zM1.441 22.383h1.124v1.406H1.441v3.131c0 .041.035.075.077.075h5.92l.02-.104.014-.072c.012-.054.024-.107.038-.16l.009-.038a4.26 4.26 0 0 1 .056-.193l.02-.058.046-.132.028-.072.046-.114a2.049 2.049 0 0 1 .084-.182l.038-.076.054-.102.042-.074.059-.1a2.156 2.156 0 0 1 .11-.171 1.08 1.08 0 0 1 .044-.066l.076-.104.042-.057.106-.132a3.757 3.757 0 0 1 .15-.171l.043-.045c.032-.033.063-.066.096-.098l.056-.053.089-.083.062-.055c.029-.025.059-.051.09-.075l.066-.053.092-.071.069-.05.096-.067.07-.047c.034-.023.069-.044.103-.065l.069-.042c.038-.023.077-.044.116-.065.02-.011.04-.023.061-.033.055-.029.11-.057.167-.083l.014-.007c.061-.029.123-.056.186-.082l.061-.024.13-.05.076-.026c.039-.014.079-.027.119-.039l.082-.024c.039-.011.078-.023.118-.033.028-.007.056-.015.085-.021l.118-.026.087-.018c.04-.007.081-.015.122-.021l.086-.014.128-.016.082-.009.143-.011.07-.005a3.893 3.893 0 0 1 .502.005c.048.003.096.006.143.011.028.002.055.006.082.009l.128.016c.029.004.058.008.086.014.041.006.081.014.122.021l.087.018a4.084 4.084 0 0 1 .321.08l.082.024c.04.012.08.026.119.039l.076.026.13.05.061.024c.062.026.124.053.186.082l.014.007c.056.026.112.054.167.083l.06.033.116.065.069.042c.035.021.069.042.103.065l.07.047c.032.022.065.044.096.067l.069.05.092.071c.023.017.044.035.066.053.031.025.061.05.09.076l.062.054.09.084.056.053.096.098.043.044c.045.048.089.098.132.148l.017.021c.036.044.073.088.107.134l.042.055.077.105.044.066c.023.033.044.066.066.1l.044.071.059.101.041.074.055.103a2.6 2.6 0 0 1 .087.183 2.343 2.343 0 0 1 .08.191l.028.071c.017.045.032.09.047.135l.019.055c.02.064.039.129.057.195l.007.031c.014.056.028.111.04.168l.013.069.021.106h12.453V6.106c0-.388.323-.703.721-.703h10.419c.018 0 .073 0 .107-.062s.004-.106-.006-.12l-2.255-3.3a1.18 1.18 0 0 0-.977-.51H17.784a.397.397 0 0 0-.278.112l-1.192 1.163a1.845 1.845 0 0 1-1.297.524H2.608c-.643 0-1.167.511-1.167 1.138v18.039z" />
            <path
                d="M20.116 7.198h4.558c.921 0 1.67.731 1.67 1.629v15.046a.712.712 0 0 1-.721.703h-6.456a.712.712 0 0 1-.721-.703V8.827c-.001-.899.748-1.629 1.669-1.629zm-.229 15.972h5.015v-8.267h-5.015v8.267zm0-9.673h5.015V8.828a.226.226 0 0 0-.229-.223h-4.558c-.126 0-.229.1-.229.223v4.669h.001zM5.536 7.198h8.814c1.019 0 1.848.809 1.848 1.802v4.1c0 .994-.829 1.802-1.848 1.802H5.535c-1.019 0-1.848-.809-1.848-1.802V9c.001-.994.83-1.802 1.848-1.802zM5.129 13.1c0 .218.182.396.406.396h8.814a.402.402 0 0 0 .406-.396V9a.402.402 0 0 0-.406-.396H5.534A.402.402 0 0 0 5.128 9v4.1h.001z" />
        </symbol>
        <symbol id="icon-auto" viewBox="0 0 32 32">
            <path stroke-linejoin="round" stroke-linecap="round" stroke-width="2.4"
                d="M22.667 14.667h2a2 2 0 0 0 0-4h-2v6.667m0 5.333V28H24a2.668 2.668 0 0 0 0-5.334h-1.333zM4 6.667a2.668 2.668 0 1 0 5.336 0 2.668 2.668 0 0 0-5.336 0z" />
            <path stroke-linejoin="round" stroke-linecap="round" stroke-width="2.4"
                d="M6.667 9.333v4a1.335 1.335 0 0 0 1.334 1.334h4m-.001 0V24a1.33 1.33 0 0 0 1.334 1.333h4M12 14.667h5.333" />
        </symbol>
        <symbol id="icon-beds" viewBox="0 0 32 32">
            <path stroke-linejoin="round" stroke-linecap="round" stroke-width="2.24"
                d="M3 26v-7a4.012 4.012 0 0 1 4-4h18a4.012 4.012 0 0 1 4 4v7m-5-11H6V8.5A2.504 2.504 0 0 1 8.5 6h15A2.504 2.504 0 0 1 26 8.5V15h-2z" />
            <path stroke-linejoin="round" stroke-linecap="round" stroke-width="2.24"
                d="M3 26v-.5A1.504 1.504 0 0 1 4.5 24h23a1.504 1.504 0 0 1 1.5 1.5v.5M7 15v-1a2.002 2.002 0 0 1 2-2h5a2.002 2.002 0 0 1 2 2m0 0v1m0-1a2.008 2.008 0 0 1 2-2h5a2.002 2.002 0 0 1 2 2v1" />
        </symbol>
        <symbol id="icon-route" viewBox="0 0 32 32">
            <path
                d="M6.667 4a2.667 2.667 0 1 0 0 5.334 2.667 2.667 0 0 0 0-5.334zM1.333 6.667a5.333 5.333 0 1 1 10.666 0 5.333 5.333 0 0 1-10.666 0zM25.333 22.667a2.667 2.667 0 1 0 0 5.334 2.667 2.667 0 0 0 0-5.334zM20 25.333a5.333 5.333 0 1 1 10.667 0 5.333 5.333 0 0 1-10.667 0z" />
            <path
                d="M13.333 6.667c0-.736.597-1.333 1.333-1.333h8.4c4.13 0 5.62 5.404 1.987 7.429L9.58 21.567a1.295 1.295 0 0 0 .686 2.434h7.067a1.333 1.333 0 0 1 0 2.666h-7.067c-4.13 0-5.619-5.404-1.987-7.429l15.473-8.804A1.295 1.295 0 0 0 23.066 8h-8.4a1.333 1.333 0 0 1-1.333-1.333z" />
        </symbol>
        <symbol id="icon-adults" viewBox="0 0 32 32">
            <path
                d="M9.067 24.133h-4.4c-.267 0-.4-.133-.533-.267s-.267-.4-.133-.667c.8-2.267 2.8-3.6 5.067-3.6 2.8 0 5.067-2.4 5.067-5.2s-2.267-5.467-5.067-5.467c-2.8 0-5.067 2.4-5.067 5.333a5.69 5.69 0 0 0 1.333 3.6c-1.733.933-3.067 2.4-3.867 4.4-.267.933-.133 2.133.533 3.067s1.6 1.467 2.667 1.467h4.4c.8 0 1.333-.533 1.333-1.333s-.533-1.333-1.333-1.333zm-2.4-9.866c0-1.467 1.067-2.533 2.4-2.533s2.4 1.2 2.4 2.533c0 1.467-1.067 2.533-2.4 2.533s-2.4-1.2-2.4-2.533z" />
            <path
                d="M30.533 21.467c-.933-2.533-2.8-4.4-4.933-5.467 1.2-1.067 1.867-2.667 1.867-4.533C27.467 8 24.8 5.2 21.6 5.2s-5.867 2.8-5.867 6.267A6.35 6.35 0 0 0 17.6 16c-2.133 1.067-4 2.933-4.933 5.467-.667 1.2-.4 2.533.267 3.6s1.867 1.6 3.067 1.6h11.067c1.2 0 2.4-.667 3.067-1.6.8-1.067.933-2.4.4-3.6zM18.267 11.6c0-2 1.467-3.6 3.2-3.6s3.2 1.6 3.2 3.6-1.467 3.6-3.2 3.6-3.2-1.733-3.2-3.6zm9.6 12c-.133.133-.4.533-.8.533H16c-.533 0-.8-.4-.8-.533-.133-.133-.4-.667-.133-1.2 1.067-2.8 3.733-4.667 6.533-4.667s5.467 1.867 6.533 4.667c.133.533-.133 1.067-.267 1.2z" />
        </symbol>
        <symbol id="icon-kitchen" viewBox="0 0 25 32">
            <path stroke-linejoin="round" stroke-linecap="round" stroke-width="2.667"
                d="M22.815 20.444V2.666c-7.135 6.806-7.441 12.324-7.407 17.778h7.407zm0 0v8.889h-1.481v-4.444M6.519 4.148v25.185M2.074 4.148v4.444a4.444 4.444 0 0 0 7.588 3.143 4.444 4.444 0 0 0 1.302-3.143V4.148" />
        </symbol>
        <symbol id="icon-shower" viewBox="0 0 32 32">
            <path stroke-linejoin="round" stroke-linecap="round" stroke-width="2.667"
                d="m1.778 1.778 4.444 4.444m12.445 0a8.798 8.798 0 0 0-12.382.062 8.798 8.798 0 0 0-.062 12.382m15.11-15.11L3.555 21.334m16 3.555v.018m-7.111-1.796v.018m5.334-5.351v.018m5.333-5.352v.018m-8.889 17.76v.018m10.667-10.684v.018m5.333-5.352v.018" />
        </symbol>
        <symbol id="icon-petrol" viewBox="0 0 32 32">
            <path
                d="m26.36 9.64.013-.013-4.96-4.96L20 6.08l2.813 2.813a3.324 3.324 0 0 0-1.17 5.464 3.333 3.333 0 0 0 2.357.976c.48 0 .92-.107 1.333-.28v9.613a1.335 1.335 0 0 1-2.277.943 1.335 1.335 0 0 1-.391-.943v-6a2.668 2.668 0 0 0-2.667-2.667h-1.333V6.666a2.668 2.668 0 0 0-2.667-2.667h-8a2.668 2.668 0 0 0-2.667 2.667v21.333h13.333v-10h2v6.667a3.333 3.333 0 1 0 6.667-.001V11.998c0-.92-.373-1.76-.973-2.36zM16 18v7.333H8V16h8v2zm0-4.667H8V6.666h8v6.667zm8 0a1.333 1.333 0 1 1-.002-2.665A1.333 1.333 0 0 1 24 13.333z" />
        </symbol>
        <symbol id="icon-TV" viewBox="0 0 28 32">
            <path stroke-linejoin="round" stroke-linecap="round" stroke-width="1.92"
                d="M22.4 26.667H5.333A4.258 4.258 0 0 1 1.066 22.4V11.733a4.258 4.258 0 0 1 4.267-4.267H22.4a4.258 4.258 0 0 1 4.267 4.267V22.4a4.258 4.258 0 0 1-4.267 4.267zM9.6 30.933h8.533M13.867 7.467l6.4-6.4M13.867 7.467l-6.4-6.4" />
        </symbol>
        <symbol id="icon-wind" viewBox="0 0 32 32">
            <path
                d="M15.504 3.2c-1.501 0-2.956 0.513-4.117 1.45s-1.956 2.241-2.251 3.69l-0.116 0.575c-0.031 0.129-0.035 0.262-0.012 0.392s0.072 0.255 0.144 0.366c0.073 0.111 0.167 0.207 0.278 0.281s0.236 0.126 0.367 0.152c0.132 0.026 0.267 0.025 0.399-0.001s0.256-0.079 0.366-0.155c0.11-0.075 0.204-0.171 0.276-0.283s0.12-0.236 0.142-0.367l0.118-0.573c0.222-1.075 0.84-2.030 1.737-2.681s2.006-0.951 3.114-0.843c1.108 0.108 2.136 0.618 2.884 1.43s1.164 1.868 1.167 2.965c0 1.175-0.474 2.302-1.318 3.134s-1.988 1.298-3.182 1.299h-14.5c-0.265 0-0.52 0.104-0.707 0.288s-0.293 0.435-0.293 0.696c0 0.261 0.105 0.512 0.293 0.696s0.442 0.288 0.707 0.288h14.5c1.696-0.041 3.309-0.733 4.494-1.928s1.849-2.799 1.849-4.47-0.662-3.275-1.846-4.471c-1.184-1.196-2.796-1.889-4.492-1.931zM27 12.062c-1.326 0-2.598 0.519-3.536 1.442s-1.464 2.175-1.464 3.481c0 0.261 0.105 0.512 0.293 0.696s0.442 0.288 0.707 0.288 0.52-0.104 0.707-0.288c0.188-0.185 0.293-0.435 0.293-0.696 0-0.584 0.176-1.155 0.506-1.641s0.798-0.864 1.346-1.088c0.548-0.224 1.151-0.282 1.733-0.168s1.116 0.395 1.536 0.808c0.42 0.413 0.705 0.939 0.821 1.512s0.056 1.167-0.171 1.707c-0.227 0.54-0.612 1.001-1.105 1.326s-1.073 0.498-1.667 0.498h-26c-0.265 0-0.52 0.104-0.707 0.288s-0.293 0.435-0.293 0.696c0 0.261 0.105 0.512 0.293 0.696s0.442 0.288 0.707 0.288h19.5c0.663 0.001 1.298 0.262 1.766 0.724s0.73 1.089 0.729 1.742c-0.001 0.653-0.266 1.279-0.736 1.739s-1.106 0.719-1.769 0.717c-0.597 0-1.175-0.207-1.632-0.587s-0.762-0.905-0.862-1.485l-0.010-0.059c-0.018-0.131-0.062-0.256-0.131-0.37s-0.159-0.212-0.267-0.29-0.23-0.134-0.36-0.165c-0.13-0.031-0.265-0.036-0.397-0.014s-0.258 0.069-0.372 0.14c-0.113 0.071-0.211 0.163-0.287 0.271s-0.129 0.231-0.157 0.36c-0.027 0.129-0.028 0.262-0.002 0.392l0.010 0.059c0.178 1.040 0.724 1.984 1.542 2.664s1.854 1.054 2.924 1.054c1.195 0 2.341-0.466 3.186-1.297s1.322-1.958 1.324-3.134c0-0.912-0.28-1.759-0.758-2.462h2.758c1.326 0 2.598-0.519 3.536-1.442s1.464-2.176 1.464-3.481c0-1.306-0.527-2.558-1.464-3.481s-2.209-1.442-3.536-1.442z"></path>
        </symbol>
        <symbol id="icon-star" viewBox="0 0 32 32">
            <path stroke-linejoin="miter" stroke-linecap="butt" stroke-miterlimit="4"
                stroke-width="2.4"
                d="M12.4 9.394l3.6-6.822 3.6 6.822c0.318 0.603 0.899 1.025 1.571 1.141l7.601 1.315-5.376 5.532c-0.475 0.489-0.697 1.171-0.6 1.846l1.098 7.635-6.922-3.404c-0.612-0.301-1.329-0.301-1.941 0l-6.922 3.404 1.098-7.635c0.097-0.675-0.125-1.357-0.6-1.846l-5.376-5.532 7.601-1.315c0.672-0.116 1.252-0.538 1.571-1.141z"></path>
        </symbol>
        <symbol id="icon-heart" viewBox="0 0 33 32">
            <path stroke-linejoin="round" stroke-linecap="round" stroke-miterlimit="4"
                stroke-width="3.0667"
                d="M28.453 6.147c-0.681-0.681-1.49-1.222-2.379-1.591s-1.844-0.559-2.807-0.559-1.917 0.19-2.807 0.559c-0.89 0.369-1.699 0.909-2.38 1.591l-1.413 1.413-1.413-1.413c-1.376-1.376-3.241-2.148-5.187-2.148s-3.811 0.773-5.187 2.148c-1.376 1.376-2.148 3.241-2.148 5.187s0.773 3.811 2.148 5.187l11.787 11.787 11.787-11.787c0.681-0.681 1.222-1.49 1.591-2.38s0.559-1.844 0.559-2.807-0.19-1.917-0.559-2.807c-0.369-0.89-0.909-1.699-1.591-2.38z"></path>
        </symbol>
        <symbol id="icon-close" viewBox="0 0 32 32">
            <path stroke-linejoin="round" stroke-linecap="round" stroke-miterlimit="4"
                stroke-width="3" d="M24 8l-16 16"></path>
            <path stroke-linejoin="round" stroke-linecap="round" stroke-miterlimit="4"
                stroke-width="3" d="M8 8l16 16"></path>
        </symbol>
    </defs>
</svg>